<mxfile host="app.diagrams.net" modified="2023-12-22T00:05:21.154Z" agent="Mozilla/5.0 (Windows NT 10.0; Win64; x64) AppleWebKit/537.36 (KHTML, like Gecko) Chrome/120.0.0.0 Safari/537.36 Edg/120.0.0.0" etag="TzosMx-_lh-spYRx2o4c" version="22.1.11" type="device">
  <diagram name="Page-1" id="7l-Ol7Uen6aV_HLUcphM">
    <mxGraphModel dx="1842" dy="1743" grid="1" gridSize="10" guides="1" tooltips="1" connect="1" arrows="1" fold="1" page="0" pageScale="1" pageWidth="850" pageHeight="1100" math="0" shadow="0">
      <root>
        <mxCell id="0" />
        <mxCell id="1" parent="0" />
        <mxCell id="gugvbCETILWeeH8P8Fkv-1" value="" style="rounded=0;whiteSpace=wrap;html=1;aspect=fixed;" parent="1" vertex="1">
          <mxGeometry x="-780" y="-990" width="1546.67" height="870" as="geometry" />
        </mxCell>
      </root>
    </mxGraphModel>
  </diagram>
</mxfile>
